<svg xmlns="http://www.w3.org/2000/svg" height="40" viewBox="0 -960 960 960" width="40"><path d="m482-200 114-113-114-113-42 42 43 43q-28 1-54.5-9T381-381q-20-20-30.5-46T340-479q0-17 4.5-34t12.5-33l-44-44q-17 25-25 53t-8 57q0 38 15 75t44 66q29 29 65 43.5t74 15.5l-38 38 42 42Zm165-170q17-25 25-53t8-57q0-38-14.5-75.5T622-622q-29-29-65.5-43T482-679l38-39-42-42-114 113 114 113 42-42-44-44q27 0 55 10.5t48 30.5q20 20 30.5 46t10.5 52q0 17-4.5 34T603-414l44 44ZM480-80q-82.333 0-155.333-31.5t-127.334-85.833Q143-251.667 111.5-324.667T80-480q0-83 31.5-156t85.833-127q54.334-54 127.334-85.5T480-880q83 0 156 31.5T763-763q54 54 85.5 127T880-480q0 82.333-31.5 155.333T763-197.333Q709-143 636-111.5T480-80Zm0-66.666q139.333 0 236.334-97.334 97-97.333 97-236 0-139.333-97-236.334-97.001-97-236.334-97-138.667 0-236 97Q146.666-619.333 146.666-480q0 138.667 97.334 236 97.333 97.334 236 97.334ZM480-480Z"/></svg>